<svg version="1.1" viewBox="0.0 0.0 367.4514435695538 367.748031496063" fill="none" stroke="none" stroke-linecap="square" stroke-miterlimit="10" xmlns:xlink="http://www.w3.org/1999/xlink" xmlns="http://www.w3.org/2000/svg"><clipPath id="p.0"><path d="m0 0l367.45145 0l0 367.74802l-367.45145 0l0 -367.74802z" clip-rule="nonzero"/></clipPath><g clip-path="url(#p.0)"><path fill="#000000" fill-opacity="0.0" d="m0 0l367.45145 0l0 367.74802l-367.45145 0z" fill-rule="evenodd"/><path fill="#000000" fill-opacity="0.0" d="m36.766266 162.10236l0 0c0 -81.16411 65.79652 -146.96062 146.96063 -146.96062l0 0c38.97638 0 76.356384 15.483308 103.91684 43.043774c27.560486 27.560467 43.043793 64.940475 43.043793 103.916855l0 0c0 81.16412 -65.79651 146.96063 -146.96063 146.96063l0 0c-81.164116 0 -146.96063 -65.79651 -146.96063 -146.96063z" fill-rule="evenodd"/><path stroke="#381c65" stroke-width="24.0" stroke-linejoin="round" stroke-linecap="butt" d="m36.766266 162.10236l0 0c0 -81.16411 65.79652 -146.96062 146.96063 -146.96062l0 0c38.97638 0 76.356384 15.483308 103.91684 43.043774c27.560486 27.560467 43.043793 64.940475 43.043793 103.916855l0 0c0 81.16412 -65.79651 146.96063 -146.96063 146.96063l0 0c-81.164116 0 -146.96063 -65.79651 -146.96063 -146.96063z" fill-rule="evenodd"/></g></svg>