<svg version="1.1" viewBox="0.0 0.0 367.4514435695538 367.748031496063" fill="none" stroke="none" stroke-linecap="square" stroke-miterlimit="10" xmlns:xlink="http://www.w3.org/1999/xlink" xmlns="http://www.w3.org/2000/svg"><clipPath id="p.0"><path d="m0 0l367.45145 0l0 367.74802l-367.45145 0l0 -367.74802z" clip-rule="nonzero"/></clipPath><g clip-path="url(#p.0)"><path fill="#000000" fill-opacity="0.0" d="m0 0l367.45145 0l0 367.74802l-367.45145 0z" fill-rule="evenodd"/><path fill="#381c65" d="m304.43832 59.918636l0 0c0 -14.933434 12.1059265 -27.039371 27.039368 -27.039371l0 0c7.171295 0 14.048859 2.8487816 19.11972 7.919647c5.070862 5.0708656 7.919647 11.948437 7.919647 19.119724l0 0c0 14.93343 -12.1059265 27.039371 -27.039368 27.039371l0 0c-14.933441 0 -27.039368 -12.105942 -27.039368 -27.039371z" fill-rule="evenodd"/><path fill="#381c65" d="m8.934383 277.82153l0 0c0 -14.933441 12.105938 -27.039383 27.039371 -27.039383l0 0c7.1712837 0 14.048855 2.8487854 19.11972 7.9196625c5.0708656 5.070862 7.919647 11.948425 7.919647 19.11972l0 0c0 14.933411 -12.105938 27.039368 -27.039368 27.039368l0 0c-14.933434 0 -27.039371 -12.105957 -27.039371 -27.039368z" fill-rule="evenodd"/><path fill="#000000" fill-opacity="0.0" d="m39.80315 270.11548c6.6097984 -24.035858 6.3692017 -140.24934 39.658794 -144.21521c33.28959 -3.9658813 118.61679 130.51529 160.07874 120.419945c41.461945 -10.095352 73.91077 -150.82677 88.6929 -180.99213" fill-rule="evenodd"/><path stroke="#381c65" stroke-width="24.0" stroke-linejoin="round" stroke-linecap="butt" d="m39.80315 270.11548c6.6097984 -24.035858 6.3692017 -140.24934 39.658794 -144.21521c33.28959 -3.9658813 118.61679 130.51529 160.07874 120.419945c41.461945 -10.095352 73.91077 -150.82677 88.6929 -180.99213" fill-rule="evenodd"/></g></svg>