<svg version="1.1" viewBox="0.0 0.0 367.4514435695538 367.748031496063" fill="none" stroke="none" stroke-linecap="square" stroke-miterlimit="10" xmlns:xlink="http://www.w3.org/1999/xlink" xmlns="http://www.w3.org/2000/svg"><clipPath id="p.0"><path d="m0 0l367.45145 0l0 367.74802l-367.45145 0l0 -367.74802z" clip-rule="nonzero"/></clipPath><g clip-path="url(#p.0)"><path fill="#000000" fill-opacity="0.0" d="m0 0l367.45145 0l0 367.74802l-367.45145 0z" fill-rule="evenodd"/><path fill="#381c65" d="m11.379265 165.93176l0 0c0 -10.958725 8.883799 -19.84253 19.84252 -19.84253l305.00787 0c5.2625732 0 10.309601 2.0905457 14.030792 5.8117523c3.7211914 3.7211914 5.811737 8.768204 5.811737 14.030777l0 0l0 0c0 10.95871 -8.883789 19.842514 -19.84253 19.842514l-305.00787 0c-10.958721 0 -19.84252 -8.883804 -19.84252 -19.842514z" fill-rule="evenodd"/></g></svg>