<svg version="1.1" viewBox="0.0 0.0 367.4514435695538 367.748031496063" fill="none" stroke="none" stroke-linecap="square" stroke-miterlimit="10" xmlns:xlink="http://www.w3.org/1999/xlink" xmlns="http://www.w3.org/2000/svg"><clipPath id="p.0"><path d="m0 0l367.45145 0l0 367.74802l-367.45145 0l0 -367.74802z" clip-rule="nonzero"/></clipPath><g clip-path="url(#p.0)"><path fill="#000000" fill-opacity="0.0" d="m0 0l367.45145 0l0 367.74802l-367.45145 0z" fill-rule="evenodd"/><path fill="#381c65" d="m304.43832 86.01575l0 0c0 -14.933434 12.1059265 -27.039368 27.039368 -27.039368l0 0c7.171295 0 14.048859 2.8487816 19.11972 7.919647c5.070862 5.070862 7.919647 11.948433 7.919647 19.11972l0 0c0 14.933434 -12.1059265 27.039368 -27.039368 27.039368l0 0c-14.933441 0 -27.039368 -12.105934 -27.039368 -27.039368z" fill-rule="evenodd"/><path fill="#381c65" d="m16.866142 88.90026l0 0c0 -14.933434 12.105938 -27.039368 27.039368 -27.039368l0 0c7.1712875 0 14.048859 2.8487854 19.119724 7.919647c5.0708656 5.070862 7.919651 11.948433 7.919651 19.11972l0 0c0 14.933434 -12.105942 27.039375 -27.039375 27.039375l0 0c-14.93343 0 -27.039368 -12.105942 -27.039368 -27.039375z" fill-rule="evenodd"/><path fill="#381c65" d="m163.17455 299.59055l0 0c0 -14.933441 12.1059265 -27.039368 27.039368 -27.039368l0 0c7.17128 0 14.048859 2.8487854 19.11972 7.919647c5.070862 5.070862 7.919647 11.948425 7.919647 19.11972l0 0c0 14.933441 -12.105942 27.039368 -27.039368 27.039368l0 0c-14.933441 0 -27.039368 -12.1059265 -27.039368 -27.039368z" fill-rule="evenodd"/><path fill="#000000" fill-opacity="0.0" d="m42.687664 85.519684c9.133419 27.641296 31.245403 130.27472 54.800526 165.84776c23.555115 35.573074 57.206467 46.989944 86.53018 47.59056c29.323715 0.60061646 65.01575 -8.413818 89.41208 -43.986877c24.396332 -35.57306 47.471558 -141.20953 56.96588 -169.45145" fill-rule="evenodd"/><path stroke="#381c65" stroke-width="24.0" stroke-linejoin="round" stroke-linecap="butt" d="m42.687664 85.519684c9.133419 27.641296 31.245403 130.27472 54.800526 165.84776c23.555115 35.573074 57.206467 46.989944 86.53018 47.59056c29.323715 0.60061646 65.01575 -8.413818 89.41208 -43.986877c24.396332 -35.57306 47.471558 -141.20953 56.96588 -169.45145" fill-rule="evenodd"/></g></svg>