<svg version="1.1" viewBox="0.0 0.0 367.4514435695538 367.748031496063" fill="none" stroke="none" stroke-linecap="square" stroke-miterlimit="10" xmlns:xlink="http://www.w3.org/1999/xlink" xmlns="http://www.w3.org/2000/svg"><clipPath id="p.0"><path d="m0 0l367.45145 0l0 367.74802l-367.45145 0l0 -367.74802z" clip-rule="nonzero"/></clipPath><g clip-path="url(#p.0)"><path fill="#000000" fill-opacity="0.0" d="m0 0l367.45145 0l0 367.74802l-367.45145 0z" fill-rule="evenodd"/><path fill="#381c65" d="m45.992126 28.553806l275.46457 0l0 28.850391l-275.46457 0z" fill-rule="evenodd"/><path stroke="#381c65" stroke-width="8.0" stroke-linejoin="round" stroke-linecap="butt" d="m45.992126 28.553806l275.46457 0l0 28.850391l-275.46457 0z" fill-rule="evenodd"/><path fill="#381c65" d="m169.73898 28.553806l27.968506 0l0 267.3701l-27.968506 0z" fill-rule="evenodd"/><path stroke="#381c65" stroke-width="8.0" stroke-linejoin="round" stroke-linecap="butt" d="m169.73898 28.553806l27.968506 0l0 267.3701l-27.968506 0z" fill-rule="evenodd"/><path fill="#381c65" d="m45.993366 28.553806l27.968502 0l0 74.267715l-27.968502 0z" fill-rule="evenodd"/><path stroke="#381c65" stroke-width="8.0" stroke-linejoin="round" stroke-linecap="butt" d="m45.993366 28.553806l27.968502 0l0 74.267715l-27.968502 0z" fill-rule="evenodd"/><path fill="#381c65" d="m293.4842 28.553806l27.968506 0l0 74.267715l-27.968506 0z" fill-rule="evenodd"/><path stroke="#381c65" stroke-width="8.0" stroke-linejoin="round" stroke-linecap="butt" d="m293.4842 28.553806l27.968506 0l0 74.267715l-27.968506 0z" fill-rule="evenodd"/><path fill="#381c65" d="m146.93843 267.0735l73.574814 0l0 28.850403l-73.574814 0z" fill-rule="evenodd"/><path stroke="#381c65" stroke-width="8.0" stroke-linejoin="round" stroke-linecap="butt" d="m146.93843 267.0735l73.574814 0l0 28.850403l-73.574814 0z" fill-rule="evenodd"/></g></svg>